<?xml version="1.0" encoding="utf-8"?>
<!-- Generator: Adobe Illustrator 22.1.0, SVG Export Plug-In . SVG Version: 6.00 Build 0)  -->
<svg version="1.1" id="Layer_1" xmlns="http://www.w3.org/2000/svg" xmlns:xlink="http://www.w3.org/1999/xlink" x="0px" y="0px"
	 viewBox="0 0 299 310" style="enable-background:new 0 0 299 310;" xml:space="preserve">
<style type="text/css">
	.st0{fill:#6D6E71;}
	.st1{fill:#F7941D;}
	.st2{fill:#EBEBEC;}
	.st3{fill:#BCBCBB;}
	.st4{fill:#DBDADA;}
	.st5{fill:#FFFFFF;}
	.st6{fill:#222257;}
	.st7{fill:#BCBEC0;}
</style>
<g>
	<g>
		<path class="st0" d="M46.5,259.7v-44.5h5.7c3.9,0,6.9,0.7,8.9,2.6c2,1.9,3,4.8,3,9.2c0,2.1-0.2,3.7-0.8,5.1
			c-0.7,1.5-1.7,2.7-3.2,4.1c1.6,0.9,2.8,2.6,3.8,5.4c0.5,1.4,0.7,3.2,0.7,5.4c0,3.3-0.6,6.3-2.1,8.6s-4.1,3.8-8,4H46.5z M53,233.6
			c0.5,0,1.8,0.1,2.9-0.7c1.1-0.7,1.9-2.2,1.9-5.3c0-3.1-0.8-4.5-1.9-5.3c-1.1-0.7-2.4-0.7-2.9-0.7V233.6z M53,253.3
			c0.5,0,1.8,0.1,2.9-0.7c1.1-0.8,1.9-2.5,1.9-6.2s-0.8-5.4-1.9-6.2s-2.4-0.7-2.9-0.7V253.3z"/>
		<path class="st0" d="M68.5,215.3h6.5v44.5h-6.5V215.3z"/>
		<path class="st0" d="M96.9,244.5v6.1c-0.1,1.8-0.4,3.4-1.1,4.8c-0.5,1.2-1.4,2.4-2.6,3.3c-1.2,1-2.8,1.5-5,1.5
			c-2.2,0-3.9-0.5-5.1-1.5c-1.2-0.9-2-2.1-2.5-3.3c-0.7-1.4-1-3-1.1-4.8v-26.2c0.1-1.8,0.4-3.4,1.1-4.8c0.5-1.2,1.3-2.4,2.5-3.3
			c1.2-0.9,2.9-1.5,5.1-1.5c2.2,0,3.8,0.6,5,1.5c1.2,0.9,2.1,2.1,2.6,3.3c0.7,1.4,1,3,1.1,4.8v6.1h-6.1v-6.1c0-1.2-0.3-2.1-1-2.8
			c-0.3-0.3-0.8-0.5-1.5-0.5c-1.2,0-1.7,0.8-2,1.6c-0.2,0.5-0.2,1-0.3,1.6v26.2c0.1,1.3,0.4,2.1,1,2.8c0.3,0.3,0.7,0.5,1.3,0.5
			c1.4,0,1.9-0.7,2.2-1.6c0.2-0.4,0.2-1,0.2-1.6v-6.1H96.9z"/>
	</g>
</g>
<g>
	<path class="st1" d="M101.4,259.1l6.7-44.5h8l6.7,44.5h-6.4l-1.2-9.1h-6.3l-1.2,9.1H101.4z M112.4,229.1l-0.2-1.1h-0.4l-0.2,1.1
		l-1.9,14h4.5L112.4,229.1z"/>
	<path class="st1" d="M143.2,214.6v35.3c-0.1,1.8-0.4,3.4-1.1,4.8c-0.5,1.2-1.4,2.4-2.6,3.3c-1.2,1-2.8,1.5-5,1.5s-3.9-0.5-5.1-1.5
		c-1.2-0.9-2-2.1-2.5-3.3c-0.7-1.4-1-3-1.1-4.8v-35.3h6.5v35.3c0,1.3,0.3,2.1,0.9,2.8c0.3,0.3,0.7,0.5,1.3,0.5
		c1.1,0,1.7-0.7,1.9-1.6c0.2-0.4,0.2-1,0.2-1.6v-35.3H143.2z"/>
	<path class="st1" d="M164.9,243.8v6.1c-0.1,1.8-0.4,3.4-1.1,4.8c-0.5,1.2-1.4,2.4-2.6,3.3c-1.2,1-2.8,1.5-5,1.5s-3.9-0.5-5.1-1.5
		c-1.2-0.9-2-2.1-2.5-3.3c-0.7-1.4-1-3-1.1-4.8v-26.2c0.1-1.8,0.4-3.4,1.1-4.8c0.5-1.2,1.3-2.4,2.5-3.3c1.2-0.9,2.9-1.5,5.1-1.5
		s3.8,0.6,5,1.5c1.2,0.9,2.1,2.1,2.6,3.3c0.7,1.4,1,3,1.1,4.8v6.1h-6.1v-6.1c0-1.2-0.3-2.1-1-2.8c-0.3-0.3-0.8-0.5-1.5-0.5
		c-1.1,0-1.7,0.8-2,1.6c-0.2,0.5-0.2,1-0.3,1.6v26.2c0.1,1.3,0.4,2.1,1,2.8c0.3,0.3,0.7,0.5,1.3,0.5c1.4,0,1.9-0.7,2.2-1.6
		c0.2-0.4,0.2-1,0.2-1.6v-6.1H164.9z"/>
	<path class="st1" d="M166.6,221.3v-6.7h18.9v6.7h-6.2v37.8h-6.5v-37.8H166.6z"/>
	<path class="st1" d="M188,214.6h6.5v44.5H188V214.6z"/>
	<path class="st1" d="M216.4,249.9c-0.1,1.8-0.4,3.4-1.1,4.8c-0.5,1.2-1.4,2.4-2.6,3.3c-1.2,1-2.8,1.5-5,1.5s-3.9-0.5-5.1-1.5
		c-1.2-0.9-2-2.1-2.5-3.3c-0.7-1.4-1-3-1.1-4.8v-26.2c0.1-1.8,0.4-3.4,1.1-4.8c0.5-1.2,1.3-2.4,2.5-3.3c1.2-0.9,2.9-1.5,5.1-1.5
		s3.8,0.6,5,1.5c1.2,0.9,2.1,2.1,2.6,3.3c0.7,1.4,1,3,1.1,4.8V249.9z M209.8,223.7c0-1.2-0.2-2.1-0.8-2.8c-0.3-0.3-0.8-0.5-1.3-0.5
		c-1.1,0-1.7,0.8-1.9,1.6c-0.2,0.5-0.2,1-0.2,1.6v26.2c0,1.3,0.3,2.1,0.9,2.8c0.3,0.3,0.7,0.5,1.3,0.5c1.1,0,1.7-0.7,1.9-1.6
		c0.2-0.4,0.2-1,0.2-1.6V223.7z"/>
	<path class="st1" d="M227.7,235.9l-0.5-2.1h-0.4v25.2h-6v-44.5h5.8l6.4,23.2l0.5,2.1h0.4v-25.2h6v44.5H234L227.7,235.9z"/>
	<path class="st1" d="M255.5,226.5c0-1.5-0.1-3.1-0.5-4.4c-0.4-1.2-1.1-2.1-2.1-2.1c-1.7,0.1-2.2,1.8-2.2,4.4c0,1.5,0.7,3.1,1.6,4.8
		c1,1.7,2.2,3.4,3.5,5.3c1.5,2.2,3,4.5,4.2,6.8c1.1,2.2,1.9,4.5,1.9,7c0,3-0.5,5.7-1.9,7.8c-1.4,2.1-3.6,3.4-7.2,3.4
		c-4.2,0-6.5-1.6-7.9-4c-1.3-2.4-1.6-5.6-1.6-9l6.4-0.6c0,1.9,0.1,3.8,0.5,5.1c0.4,1.5,1.1,2.4,2.5,2.4c1.9,0,2.7-2.1,2.7-4.9
		c0-1.5-0.7-3.1-1.7-4.9c-0.5-0.8-1.1-1.8-1.7-2.7c-1.3-1.8-2.7-3.9-4.1-6.1c-1.5-2.2-2.5-4.5-3.2-6.9c-0.4-1.1-0.5-2.4-0.5-3.6
		c0-2.4,0.5-5,1.9-7c1.4-1.9,3.5-3.3,6.6-3.4c3.9-0.1,6.2,1.6,7.5,3.9c1.3,2.4,1.6,5.4,1.6,7.9L255.5,226.5z"/>
</g>
<polygon class="st2" points="166.7,109.6 150.1,119.2 166.7,128.8 183.3,119.2 "/>
<polygon class="st3" points="183.3,97.1 166.7,106.7 166.7,128.8 183.3,119.2 "/>
<polygon class="st3" points="183.3,97.1 166.7,106.7 166.7,128.8 183.3,119.2 "/>
<polygon class="st2" points="183.3,97.1 166.7,106.7 183.2,116.2 199.8,106.7 "/>
<polygon class="st1" points="233,125.8 216.4,135.4 216.4,157.5 233,147.9 "/>
<polygon class="st3" points="133.5,87.5 117,97.1 117,119.2 133.5,109.6 "/>
<polygon class="st2" points="133.5,109.6 117,119.2 133.5,128.8 150.1,119.2 "/>
<polygon class="st4" points="117,97.1 133.5,106.7 133.5,128.8 117,119.2 "/>
<polygon class="st2" points="150.1,123.9 133.5,133.5 150.1,143.1 166.7,133.5 "/>
<polygon class="st4" points="133.5,111.4 150.1,121 150.1,143.1 133.5,133.5 "/>
<polygon class="st3" points="166.7,111.4 150.1,121 150.1,143.1 166.7,133.5 "/>
<polygon class="st3" points="166.7,106.7 150.1,116.2 150.1,138.3 166.7,128.8 "/>
<polygon class="st2" points="166.7,128.8 150.1,138.3 166.7,147.9 183.2,138.3 "/>
<polygon class="st4" points="150.1,116.2 166.7,125.8 166.7,147.9 150.1,138.3 "/>
<polygon class="st2" points="166.7,106.7 150.1,116.2 166.7,125.8 183.2,116.2 "/>
<polygon class="st5" points="166.7,125.8 183.2,135.4 183.2,157.5 166.7,147.9 "/>
<polygon class="st3" points="117,97.1 100.4,106.7 100.4,128.8 117,119.2 "/>
<polygon class="st2" points="117,119.2 100.4,128.8 117,138.4 133.5,128.8 "/>
<polygon class="st4" points="100.4,106.7 117,116.2 117,138.4 100.4,128.8 "/>
<polygon class="st3" points="133.5,106.7 117,116.2 117,138.4 133.5,128.8 "/>
<polygon class="st2" points="117,97.1 100.4,106.7 117,116.2 133.5,106.7 "/>
<polygon class="st3" points="133.5,106.7 117,116.2 117,138.4 133.5,128.8 "/>
<polygon class="st2" points="133.5,128.8 117,138.4 133.5,147.9 150.1,138.3 "/>
<polygon class="st4" points="116.9,116.2 133.5,125.8 133.5,147.9 116.9,138.3 "/>
<polygon class="st3" points="150.1,116.2 133.5,125.8 133.5,147.9 150.1,138.3 "/>
<polygon class="st2" points="133.5,106.7 117,116.2 133.5,125.8 150.1,116.2 "/>
<polygon class="st3" points="150.1,116.2 133.5,125.8 133.5,147.9 150.1,138.3 "/>
<polygon class="st2" points="150.1,138.3 133.5,147.9 150.1,157.5 166.7,147.9 "/>
<polygon class="st4" points="133.5,125.8 150.1,135.4 150.1,157.5 133.5,147.9 "/>
<polygon class="st3" points="166.7,125.8 150.1,135.4 150.1,157.5 166.7,147.9 "/>
<polygon class="st2" points="150.1,116.2 133.5,125.8 150.1,135.4 166.7,125.8 "/>
<polygon class="st5" points="166.7,125.8 150.1,135.4 150.1,157.5 166.7,147.9 "/>
<polygon class="st5" points="166.7,147.9 150.1,157.5 166.7,167 183.2,157.5 "/>
<polygon class="st5" points="150.1,135.4 166.7,144.9 166.7,167 150.1,157.5 "/>
<polygon class="st3" points="100.4,106.7 83.8,116.3 83.8,138.4 100.4,128.8 "/>
<polygon class="st2" points="100.4,128.8 83.8,138.4 100.4,147.9 117,138.4 "/>
<polygon class="st4" points="83.8,116.2 100.4,125.8 100.4,147.9 83.8,138.4 "/>
<polygon class="st3" points="117,116.2 100.4,125.8 100.4,147.9 117,138.4 "/>
<polygon class="st2" points="100.4,106.7 83.8,116.3 100.4,125.8 117,116.2 "/>
<polygon class="st3" points="117,116.2 100.4,125.8 100.4,147.9 117,138.4 "/>
<polygon class="st2" points="117,138.4 100.4,147.9 116.9,157.5 133.5,147.9 "/>
<polygon class="st4" points="100.4,125.8 116.9,135.4 116.9,157.5 100.4,147.9 "/>
<polygon class="st3" points="133.5,125.8 116.9,135.4 116.9,157.5 133.5,147.9 "/>
<polygon class="st5" points="117,116.2 100.4,125.8 116.9,135.4 133.5,125.8 "/>
<polygon class="st3" points="133.5,125.8 116.9,135.4 116.9,157.5 133.5,147.9 "/>
<polygon class="st2" points="133.5,147.9 116.9,157.5 133.5,167.1 150.1,157.5 "/>
<polygon class="st4" points="116.9,135.4 133.5,144.9 133.5,167.1 116.9,157.5 "/>
<polygon class="st3" points="150.1,135.4 133.5,144.9 133.5,167.1 150.1,157.5 "/>
<polygon class="st5" points="133.5,125.8 116.9,135.4 133.5,144.9 150.1,135.4 "/>
<polygon class="st3" points="150.1,135.4 133.5,144.9 133.5,167.1 150.1,157.5 "/>
<polygon class="st2" points="150.1,157.5 133.5,167.1 150.1,176.6 166.7,167 "/>
<polygon class="st4" points="133.5,144.9 150.1,154.5 150.1,176.6 133.5,167 "/>
<polygon class="st3" points="166.7,144.9 150.1,154.5 150.1,176.6 166.7,167 "/>
<polygon class="st2" points="150.1,135.4 133.5,144.9 150.1,154.5 166.7,144.9 "/>
<polygon class="st3" points="83.8,116.3 67.2,125.8 67.2,147.9 83.8,138.4 "/>
<polygon class="st2" points="83.8,138.4 67.2,147.9 83.8,157.5 100.4,147.9 "/>
<polygon class="st0" points="67.2,125.8 83.8,135.4 83.8,157.5 67.2,147.9 "/>
<polygon class="st3" points="100.4,125.8 83.8,135.4 83.8,157.5 100.4,147.9 "/>
<polygon class="st2" points="83.8,116.3 67.2,125.8 83.8,135.4 100.4,125.8 "/>
<polygon class="st3" points="100.4,125.8 83.8,135.4 83.8,157.5 100.4,147.9 "/>
<polygon class="st2" points="100.4,147.9 83.8,157.5 100.4,167.1 116.9,157.5 "/>
<polygon class="st0" points="83.8,135.4 100.4,145 100.4,167.1 83.8,157.5 "/>
<polygon class="st3" points="116.9,135.4 100.4,145 100.4,167.1 116.9,157.5 "/>
<polygon class="st5" points="100.4,125.8 83.8,135.4 100.4,145 116.9,135.4 "/>
<polygon class="st3" points="116.9,135.4 100.4,145 100.4,167.1 116.9,157.5 "/>
<polygon class="st2" points="116.9,157.5 100.4,167.1 116.9,176.6 133.5,167.1 "/>
<polygon class="st0" points="100.4,144.9 116.9,154.5 116.9,176.6 100.4,167.1 "/>
<polygon class="st3" points="133.5,144.9 116.9,154.5 116.9,176.6 133.5,167.1 "/>
<polygon class="st5" points="116.9,135.4 100.4,145 116.9,154.5 133.5,144.9 "/>
<polygon class="st0" points="116.9,154.5 133.4,164.1 133.4,186.2 116.9,176.6 "/>
<polygon class="st3" points="150,155 133.4,164.6 133.4,186.7 150,177.1 "/>
<polygon class="st5" points="133.5,145 116.9,154.5 133.5,164.1 150.1,154.5 "/>
<polygon class="st3" points="150.1,154.5 133.5,164.1 133.5,186.2 150.1,176.6 "/>
<polygon class="st2" points="150.1,176.6 133.5,186.2 150.1,195.8 166.6,186.2 "/>
<polygon class="st0" points="133.5,164.1 150.1,173.7 150.1,195.8 133.5,186.2 "/>
<polygon class="st1" points="166.6,164.1 150.1,173.7 150.1,195.8 166.6,186.2 "/>
<polygon class="st2" points="150.1,154.5 133.5,164.1 150.1,173.7 166.6,164.1 "/>
<polygon class="st2" points="183.3,97.1 166.7,106.7 183.2,116.2 199.8,106.7 "/>
<polygon class="st3" points="199.8,84.6 183.2,94.1 183.2,116.2 199.8,106.7 "/>
<polygon class="st3" points="199.8,84.6 183.2,94.1 183.2,116.2 199.8,106.7 "/>
<polygon class="st2" points="199.8,84.6 183.2,94.1 199.8,103.7 216.4,94.1 "/>
<polygon class="st1" points="233,103.7 216.4,113.3 216.4,135.4 233,125.8 "/>
<polygon class="st2" points="216.4,94.1 199.8,103.7 216.4,113.3 233,103.7 "/>
<polygon class="st2" points="117,97.1 100.4,106.7 117,116.2 133.5,106.7 "/>
<polygon class="st4" points="100.4,84.6 117,94.1 117,116.2 100.4,106.7 "/>
<polygon class="st3" points="133.5,84.6 117,94.1 117,116.2 133.5,106.7 "/>
<polygon class="st3" points="100.4,84.6 83.8,94.2 83.8,116.3 100.4,106.7 "/>
<polygon class="st2" points="100.4,106.7 83.8,116.3 100.4,125.8 117,116.2 "/>
<polygon class="st5" points="83.8,94.1 100.4,103.7 100.4,125.8 83.8,116.2 "/>
<polygon class="st3" points="117,94.1 100.4,103.7 100.4,125.8 117,116.2 "/>
<polygon class="st2" points="100.4,84.6 83.8,94.2 100.4,103.7 117,94.1 "/>
<polygon class="st3" points="83.8,94.2 67.2,103.7 67.2,125.8 83.8,116.3 "/>
<polygon class="st5" points="83.8,116.3 67.2,125.8 83.8,135.4 100.4,125.8 "/>
<polygon class="st0" points="67.2,103.7 83.8,113.3 83.8,135.4 67.2,125.8 "/>
<polygon class="st2" points="83.8,94.2 67.2,103.7 83.8,113.3 100.4,103.7 "/>
<polygon class="st3" points="116.9,113.3 100.4,122.9 100.4,145 116.9,135.4 "/>
<polygon class="st0" points="100.4,122.8 116.9,132.4 116.9,154.5 100.4,144.9 "/>
<polygon class="st2" points="116.9,113.3 100.4,122.9 116.9,132.4 133.5,122.8 "/>
<polygon class="st3" points="150.1,132.4 133.5,142 133.5,164.1 150.1,154.5 "/>
<polygon class="st2" points="150.1,154.5 133.5,164.1 150.1,173.7 166.6,164.1 "/>
<polygon class="st0" points="133.5,142 150.1,151.5 150.1,173.7 133.5,164.1 "/>
<polygon class="st1" points="166.6,142 150.1,151.5 150.1,173.7 166.6,164.1 "/>
<polygon class="st2" points="150.1,132.4 133.5,142 150.1,151.5 166.6,142 "/>
<polygon class="st0" points="150.1,33.8 133.5,43.3 150.1,52.9 166.7,43.3 "/>
<polygon class="st0" points="166.7,43.3 150.1,52.9 166.7,62.5 183.3,52.9 "/>
<polygon class="st0" points="183.3,52.9 166.7,62.5 183.2,72 199.8,62.5 "/>
<polygon class="st2" points="199.8,84.6 183.2,94.1 199.8,103.7 216.4,94.1 "/>
<polygon class="st3" points="216.4,72 199.8,81.6 199.8,103.7 216.4,94.1 "/>
<polygon class="st0" points="199.8,62.5 183.2,72 199.8,81.6 216.4,72 "/>
<polygon class="st3" points="216.4,72 199.8,81.6 199.8,103.7 216.4,94.1 "/>
<polygon class="st2" points="216.4,94.1 199.8,103.7 216.4,113.3 233,103.7 "/>
<polygon class="st4" points="199.8,81.6 216.4,91.2 216.4,113.3 199.8,103.7 "/>
<polygon class="st1" points="233,81.6 216.4,91.2 216.4,113.3 233,103.7 "/>
<polygon class="st0" points="216.4,72 199.8,81.6 216.4,91.2 233,81.6 "/>
<polygon class="st0" points="133.5,43.3 117,52.9 133.5,62.5 150.1,52.9 "/>
<polygon class="st3" points="199.8,81.6 183.2,91.2 183.2,113.3 199.8,103.7 "/>
<polygon class="st2" points="199.8,103.7 183.2,113.3 199.8,122.8 216.4,113.3 "/>
<polygon class="st4" points="183.2,91.2 199.8,100.7 199.8,122.8 183.2,113.3 "/>
<polygon class="st1" points="216.4,91.2 199.8,100.7 199.8,122.8 216.4,113.3 "/>
<polygon class="st0" points="199.8,81.6 183.2,91.2 199.8,100.7 216.4,91.2 "/>
<polygon class="st0" points="117,52.9 100.4,62.5 117,72 133.5,62.5 "/>
<polygon class="st6" points="163.4,61.3 146.9,70.8 163.4,80.4 180,70.8 "/>
<polygon class="st6" points="166.7,60.6 150.1,70.1 166.7,79.7 183.3,70.1 "/>
<polygon class="st6" points="149.2,70.6 132.6,80.1 149.2,89.7 165.8,80.1 "/>
<polygon class="st2" points="166.5,103.6 149.9,113.2 166.5,122.8 183.1,113.2 "/>
<polygon class="st3" points="183.1,91.1 166.5,100.7 166.5,122.8 183.1,113.2 "/>
<polygon class="st3" points="183.2,91.2 166.7,100.7 166.7,122.8 183.2,113.3 "/>
<polygon class="st2" points="183.2,113.3 166.7,122.8 183.2,132.4 199.8,122.8 "/>
<polygon class="st4" points="166.6,100.7 183.2,110.3 183.2,132.4 166.6,122.8 "/>
<polygon class="st1" points="199.8,100.7 183.2,110.3 183.2,132.4 199.8,122.8 "/>
<polygon class="st0" points="183.2,91.2 166.7,100.7 183.2,110.3 199.8,100.7 "/>
<polygon class="st3" points="100.4,62.5 83.8,72 83.8,94.2 100.4,84.6 "/>
<polygon class="st2" points="100.4,84.6 83.8,94.2 100.4,103.7 117,94.1 "/>
<polygon class="st4" points="83.8,72 100.4,81.6 100.4,103.7 83.8,94.1 "/>
<polygon class="st0" points="100.4,62.5 83.8,72 100.4,81.6 117,72 "/>
<polygon class="st3" points="83.8,72 67.2,81.6 67.2,103.7 83.8,94.2 "/>
<polygon class="st2" points="83.8,94.2 67.2,103.7 83.8,113.3 100.4,103.7 "/>
<polygon class="st0" points="67.2,81.6 83.8,91.2 83.8,113.3 67.2,103.7 "/>
<polygon class="st3" points="100.4,81.6 83.8,91.2 83.8,113.3 100.4,103.7 "/>
<polygon class="st0" points="83.8,72 67.2,81.6 83.8,91.2 100.4,81.6 "/>
<polygon class="st3" points="100.4,81.6 83.8,91.2 83.8,113.3 100.4,103.7 "/>
<polygon class="st2" points="100.4,103.7 83.8,113.3 100.4,122.9 116.9,113.3 "/>
<polygon class="st0" points="83.8,91.2 100.4,100.7 100.4,122.9 83.8,113.3 "/>
<polygon class="st3" points="116.9,91.2 100.4,100.7 100.4,122.9 116.9,113.3 "/>
<polygon class="st0" points="100.4,81.6 83.8,91.2 100.4,100.7 116.9,91.2 "/>
<polygon class="st3" points="116.9,91.2 100.4,100.7 100.4,122.9 116.9,113.3 "/>
<polygon class="st2" points="116.9,113.3 100.4,122.9 116.9,132.4 133.5,122.8 "/>
<polygon class="st0" points="100.4,100.7 116.9,110.3 116.9,132.4 100.4,122.8 "/>
<polygon class="st3" points="133.5,100.7 116.9,110.3 116.9,132.4 133.5,122.8 "/>
<polygon class="st0" points="116.9,91.2 100.4,100.7 116.9,110.3 133.5,100.7 "/>
<polygon class="st3" points="166.7,100.7 150.1,110.3 150.1,132.4 166.7,122.8 "/>
<polygon class="st2" points="166.7,122.8 150.1,132.4 166.6,142 183.2,132.4 "/>
<polygon class="st4" points="150.1,110.3 166.6,119.9 166.6,142 150.1,132.4 "/>
<polygon class="st1" points="183.2,110.3 166.6,119.9 166.6,142 183.2,132.4 "/>
<polygon class="st0" points="166.7,100.7 150.1,110.3 166.6,119.9 183.2,110.3 "/>
<polygon class="st3" points="133.5,100.7 116.9,110.3 116.9,132.4 133.5,122.8 "/>
<polygon class="st2" points="133.5,122.8 116.9,132.4 133.5,142 150.1,132.4 "/>
<polygon class="st0" points="116.9,110.3 133.5,119.9 133.5,142 116.9,132.4 "/>
<polygon class="st3" points="150.1,110.3 133.5,119.9 133.5,142 150.1,132.4 "/>
<polygon class="st0" points="133.5,100.7 116.9,110.3 133.5,119.9 150.1,110.3 "/>
<polygon class="st3" points="150.1,110.3 133.5,119.9 133.5,142 150.1,132.4 "/>
<polygon class="st2" points="150.1,132.4 133.5,142 150.1,151.5 166.6,142 "/>
<polygon class="st0" points="133.5,119.9 150.1,129.4 150.1,151.5 133.5,142 "/>
<polygon class="st1" points="166.6,119.9 150.1,129.4 150.1,151.5 166.6,142 "/>
<polygon class="st0" points="150.1,110.3 133.5,119.9 150.1,129.4 166.6,119.9 "/>
<polygon class="st6" points="131,80.1 114.4,89.7 131,99.2 147.6,89.7 "/>
<polygon class="st0" points="184.5,67.4 163.3,79.6 184.5,91.9 205.8,79.6 "/>
<polygon class="st0" points="166.1,79.7 144.8,92 166.1,104.2 187.3,92 "/>
<polygon class="st0" points="144.2,90.4 122.9,102.7 144.2,114.9 165.4,102.7 "/>
<polygon class="st0" points="171.3,54.1 150,66.4 171.3,78.7 192.5,66.4 "/>
<polygon class="st0" points="150.5,66.1 129.2,78.4 150.5,90.7 171.7,78.4 "/>
<polygon class="st0" points="130.7,77.4 109.4,89.7 130.7,101.9 151.9,89.7 "/>
<polygon class="st0" points="136.4,56.5 117.9,64 139.1,76.2 157.6,68.8 "/>
<g>
	<g>
		<path class="st0" d="M362.5,259.7v-44.5h5.7c3.9,0,6.9,0.7,8.9,2.6c2,1.9,3,4.8,3,9.2c0,2.1-0.2,3.7-0.8,5.1
			c-0.7,1.5-1.7,2.7-3.2,4.1c1.6,0.9,2.8,2.6,3.8,5.4c0.5,1.4,0.7,3.2,0.7,5.4c0,3.3-0.6,6.3-2.1,8.6s-4.1,3.8-8,4H362.5z
			 M369,233.6c0.5,0,1.8,0.1,2.9-0.7c1.1-0.7,1.9-2.2,1.9-5.3c0-3.1-0.8-4.5-1.9-5.3c-1.1-0.7-2.4-0.7-2.9-0.7V233.6z M369,253.3
			c0.5,0,1.8,0.1,2.9-0.7c1.1-0.8,1.9-2.5,1.9-6.2s-0.8-5.4-1.9-6.2s-2.4-0.7-2.9-0.7V253.3z"/>
		<path class="st0" d="M384.5,215.3h6.5v44.5h-6.5V215.3z"/>
		<path class="st0" d="M412.9,244.5v6.1c-0.1,1.8-0.4,3.4-1.1,4.8c-0.5,1.2-1.4,2.4-2.6,3.3c-1.2,1-2.8,1.5-5,1.5
			c-2.2,0-3.9-0.5-5.1-1.5c-1.2-0.9-2-2.1-2.5-3.3c-0.7-1.4-1-3-1.1-4.8v-26.2c0.1-1.8,0.4-3.4,1.1-4.8c0.5-1.2,1.3-2.4,2.5-3.3
			c1.2-0.9,2.9-1.5,5.1-1.5c2.2,0,3.8,0.6,5,1.5c1.2,0.9,2.1,2.1,2.6,3.3c0.7,1.4,1,3,1.1,4.8v6.1h-6.1v-6.1c0-1.2-0.3-2.1-1-2.8
			c-0.3-0.3-0.8-0.5-1.5-0.5c-1.2,0-1.7,0.8-2,1.6c-0.2,0.5-0.2,1-0.3,1.6v26.2c0.1,1.3,0.4,2.1,1,2.8c0.3,0.3,0.7,0.5,1.3,0.5
			c1.4,0,1.9-0.7,2.2-1.6c0.2-0.4,0.2-1,0.2-1.6v-6.1H412.9z"/>
	</g>
</g>
<g>
	<g>
		<path class="st7" d="M417.4,259.1l6.7-44.5h8l6.7,44.5h-6.4l-1.2-9.1h-6.3l-1.2,9.1H417.4z M428.4,229.1l-0.2-1.1h-0.4l-0.2,1.1
			l-1.9,14h4.5L428.4,229.1z"/>
	</g>
	<g>
		<path class="st7" d="M459.2,214.6v35.3c-0.1,1.8-0.4,3.4-1.1,4.8c-0.5,1.2-1.4,2.4-2.6,3.3c-1.2,1-2.8,1.5-5,1.5s-3.9-0.5-5.1-1.5
			c-1.2-0.9-2-2.1-2.5-3.3c-0.7-1.4-1-3-1.1-4.8v-35.3h6.5v35.3c0,1.3,0.3,2.1,0.9,2.8c0.3,0.3,0.7,0.5,1.3,0.5
			c1.1,0,1.7-0.7,1.9-1.6c0.2-0.4,0.2-1,0.2-1.6v-35.3H459.2z"/>
	</g>
	<g>
		<path class="st7" d="M480.9,243.8v6.1c-0.1,1.8-0.4,3.4-1.1,4.8c-0.5,1.2-1.4,2.4-2.6,3.3c-1.2,1-2.8,1.5-5,1.5s-3.9-0.5-5.1-1.5
			c-1.2-0.9-2-2.1-2.5-3.3c-0.7-1.4-1-3-1.1-4.8v-26.2c0.1-1.8,0.4-3.4,1.1-4.8c0.5-1.2,1.3-2.4,2.5-3.3c1.2-0.9,2.9-1.5,5.1-1.5
			s3.8,0.6,5,1.5c1.2,0.9,2.1,2.1,2.6,3.3c0.7,1.4,1,3,1.1,4.8v6.1h-6.1v-6.1c0-1.2-0.3-2.1-1-2.8c-0.3-0.3-0.8-0.5-1.5-0.5
			c-1.1,0-1.7,0.8-2,1.6c-0.2,0.5-0.2,1-0.3,1.6v26.2c0.1,1.3,0.4,2.1,1,2.8c0.3,0.3,0.7,0.5,1.3,0.5c1.4,0,1.9-0.7,2.2-1.6
			c0.2-0.4,0.2-1,0.2-1.6v-6.1H480.9z"/>
	</g>
	<g>
		<path class="st7" d="M482.6,221.3v-6.7h18.9v6.7h-6.2v37.8h-6.5v-37.8H482.6z"/>
	</g>
	<g>
		<path class="st7" d="M504,214.6h6.5v44.5H504V214.6z"/>
	</g>
	<g>
		<path class="st7" d="M532.4,249.9c-0.1,1.8-0.4,3.4-1.1,4.8c-0.5,1.2-1.4,2.4-2.6,3.3c-1.2,1-2.8,1.5-5,1.5
			c-2.2,0-3.9-0.5-5.1-1.5c-1.2-0.9-2-2.1-2.5-3.3c-0.7-1.4-1-3-1.1-4.8v-26.2c0.1-1.8,0.4-3.4,1.1-4.8c0.5-1.2,1.3-2.4,2.5-3.3
			c1.2-0.9,2.9-1.5,5.1-1.5c2.2,0,3.8,0.6,5,1.5c1.2,0.9,2.1,2.1,2.6,3.3c0.7,1.4,1,3,1.1,4.8V249.9z M525.8,223.7
			c0-1.2-0.2-2.1-0.8-2.8c-0.3-0.3-0.8-0.5-1.3-0.5c-1.1,0-1.7,0.8-1.9,1.6c-0.2,0.5-0.2,1-0.2,1.6v26.2c0,1.3,0.3,2.1,0.9,2.8
			c0.3,0.3,0.7,0.5,1.3,0.5c1.1,0,1.7-0.7,1.9-1.6c0.2-0.4,0.2-1,0.2-1.6V223.7z"/>
	</g>
	<g>
		<path class="st7" d="M543.7,235.9l-0.5-2.1h-0.4v25.2h-6v-44.5h5.8l6.4,23.2l0.5,2.1h0.4v-25.2h6v44.5H550L543.7,235.9z"/>
	</g>
	<g>
		<path class="st7" d="M571.5,226.5c0-1.5-0.1-3.1-0.5-4.4c-0.4-1.2-1.1-2.1-2.1-2.1c-1.7,0.1-2.2,1.8-2.2,4.4
			c0,1.5,0.7,3.1,1.6,4.8c1,1.7,2.2,3.4,3.5,5.3c1.5,2.2,3,4.5,4.2,6.8c1.1,2.2,1.9,4.5,1.9,7c0,3-0.5,5.7-1.9,7.8
			c-1.4,2.1-3.6,3.4-7.2,3.4c-4.2,0-6.5-1.6-7.9-4c-1.3-2.4-1.6-5.6-1.6-9l6.4-0.6c0,1.9,0.1,3.8,0.5,5.1c0.4,1.5,1.1,2.4,2.5,2.4
			c1.9,0,2.7-2.1,2.7-4.9c0-1.5-0.7-3.1-1.7-4.9c-0.5-0.8-1.1-1.8-1.7-2.7c-1.3-1.8-2.7-3.9-4.1-6.1c-1.5-2.2-2.5-4.5-3.2-6.9
			c-0.4-1.1-0.5-2.4-0.5-3.6c0-2.4,0.5-5,1.9-7c1.4-1.9,3.5-3.3,6.6-3.4c3.9-0.1,6.2,1.6,7.5,3.9c1.3,2.4,1.6,5.4,1.6,7.9
			L571.5,226.5z"/>
	</g>
</g>
<polygon class="st2" points="482.7,109.6 466.1,119.2 482.7,128.8 499.3,119.2 "/>
<polygon class="st3" points="499.3,97.1 482.7,106.7 482.7,128.8 499.3,119.2 "/>
<polygon class="st3" points="499.3,97.1 482.7,106.7 482.7,128.8 499.3,119.2 "/>
<polygon class="st4" points="482.7,106.7 499.2,116.2 499.2,138.3 482.7,128.8 "/>
<polygon class="st2" points="499.3,97.1 482.7,106.7 499.2,116.2 515.8,106.7 "/>
<polygon class="st7" points="549,125.8 532.4,135.4 532.4,157.5 549,147.9 "/>
<polygon class="st3" points="449.5,87.5 433,97.1 433,119.2 449.5,109.6 "/>
<polygon class="st2" points="449.5,109.6 433,119.2 449.5,128.8 466.1,119.2 "/>
<polygon class="st4" points="433,97.1 449.5,106.7 449.5,128.8 433,119.2 "/>
<polygon class="st2" points="466.1,123.9 449.5,133.5 466.1,143.1 482.7,133.5 "/>
<polygon class="st4" points="449.5,111.4 466.1,121 466.1,143.1 449.5,133.5 "/>
<polygon class="st3" points="482.7,111.4 466.1,121 466.1,143.1 482.7,133.5 "/>
<polygon class="st3" points="482.7,106.7 466.1,116.2 466.1,138.3 482.7,128.8 "/>
<polygon class="st2" points="482.7,128.8 466.1,138.3 482.7,147.9 499.2,138.3 "/>
<polygon class="st4" points="466.1,116.2 482.7,125.8 482.7,147.9 466.1,138.3 "/>
<polygon class="st3" points="499.2,116.2 482.7,125.8 482.7,147.9 499.2,138.3 "/>
<polygon class="st2" points="482.7,106.7 466.1,116.2 482.7,125.8 499.2,116.2 "/>
<polygon class="st5" points="499.2,116.2 482.7,125.8 482.7,147.9 499.2,138.3 "/>
<polygon class="st5" points="482.7,125.8 499.2,135.4 499.2,157.5 482.7,147.9 "/>
<polygon class="st3" points="433,97.1 416.4,106.7 416.4,128.8 433,119.2 "/>
<polygon class="st2" points="433,119.2 416.4,128.8 433,138.4 449.5,128.8 "/>
<polygon class="st4" points="416.4,106.7 433,116.2 433,138.4 416.4,128.8 "/>
<polygon class="st3" points="449.5,106.7 433,116.2 433,138.4 449.5,128.8 "/>
<polygon class="st2" points="433,97.1 416.4,106.7 433,116.2 449.5,106.7 "/>
<polygon class="st3" points="449.5,106.7 433,116.2 433,138.4 449.5,128.8 "/>
<polygon class="st2" points="449.5,128.8 433,138.4 449.5,147.9 466.1,138.3 "/>
<polygon class="st4" points="432.9,116.2 449.5,125.8 449.5,147.9 432.9,138.3 "/>
<polygon class="st3" points="466.1,116.2 449.5,125.8 449.5,147.9 466.1,138.3 "/>
<polygon class="st2" points="449.5,106.7 433,116.2 449.5,125.8 466.1,116.2 "/>
<polygon class="st3" points="466.1,116.2 449.5,125.8 449.5,147.9 466.1,138.3 "/>
<polygon class="st2" points="466.1,138.3 449.5,147.9 466.1,157.5 482.7,147.9 "/>
<polygon class="st4" points="449.5,125.8 466.1,135.4 466.1,157.5 449.5,147.9 "/>
<polygon class="st3" points="482.7,125.8 466.1,135.4 466.1,157.5 482.7,147.9 "/>
<polygon class="st2" points="466.1,116.2 449.5,125.8 466.1,135.4 482.7,125.8 "/>
<polygon class="st5" points="482.7,125.8 466.1,135.4 466.1,157.5 482.7,147.9 "/>
<polygon class="st5" points="482.7,147.9 466.1,157.5 482.7,167 499.2,157.5 "/>
<polygon class="st5" points="466.1,135.4 482.7,144.9 482.7,167 466.1,157.5 "/>
<polygon class="st5" points="499.2,135.4 482.7,144.9 482.7,167 499.2,157.5 "/>
<polygon class="st5" points="482.7,125.8 466.1,135.4 482.7,144.9 499.2,135.4 "/>
<polygon class="st3" points="416.4,106.7 399.8,116.3 399.8,138.4 416.4,128.8 "/>
<polygon class="st2" points="416.4,128.8 399.8,138.4 416.4,147.9 433,138.4 "/>
<polygon class="st4" points="399.8,116.2 416.4,125.8 416.4,147.9 399.8,138.4 "/>
<polygon class="st3" points="433,116.2 416.4,125.8 416.4,147.9 433,138.4 "/>
<polygon class="st2" points="416.4,106.7 399.8,116.3 416.4,125.8 433,116.2 "/>
<polygon class="st3" points="433,116.2 416.4,125.8 416.4,147.9 433,138.4 "/>
<polygon class="st2" points="433,138.4 416.4,147.9 432.9,157.5 449.5,147.9 "/>
<polygon class="st4" points="416.4,125.8 432.9,135.4 432.9,157.5 416.4,147.9 "/>
<polygon class="st3" points="449.5,125.8 432.9,135.4 432.9,157.5 449.5,147.9 "/>
<polygon class="st5" points="433,116.2 416.4,125.8 432.9,135.4 449.5,125.8 "/>
<polygon class="st3" points="449.5,125.8 432.9,135.4 432.9,157.5 449.5,147.9 "/>
<polygon class="st2" points="449.5,147.9 432.9,157.5 449.5,167.1 466.1,157.5 "/>
<polygon class="st4" points="432.9,135.4 449.5,144.9 449.5,167.1 432.9,157.5 "/>
<polygon class="st3" points="466.1,135.4 449.5,144.9 449.5,167.1 466.1,157.5 "/>
<polygon class="st5" points="449.5,125.8 432.9,135.4 449.5,144.9 466.1,135.4 "/>
<polygon class="st3" points="466.1,135.4 449.5,144.9 449.5,167.1 466.1,157.5 "/>
<polygon class="st2" points="466.1,157.5 449.5,167.1 466.1,176.6 482.7,167 "/>
<polygon class="st4" points="449.5,144.9 466.1,154.5 466.1,176.6 449.5,167 "/>
<polygon class="st3" points="482.7,144.9 466.1,154.5 466.1,176.6 482.7,167 "/>
<polygon class="st2" points="466.1,135.4 449.5,144.9 466.1,154.5 482.7,144.9 "/>
<polygon class="st3" points="399.8,116.3 383.2,125.8 383.2,147.9 399.8,138.4 "/>
<polygon class="st2" points="399.8,138.4 383.2,147.9 399.8,157.5 416.4,147.9 "/>
<polygon class="st0" points="383.2,125.8 399.8,135.4 399.8,157.5 383.2,147.9 "/>
<polygon class="st3" points="416.4,125.8 399.8,135.4 399.8,157.5 416.4,147.9 "/>
<polygon class="st2" points="399.8,116.3 383.2,125.8 399.8,135.4 416.4,125.8 "/>
<polygon class="st3" points="416.4,125.8 399.8,135.4 399.8,157.5 416.4,147.9 "/>
<polygon class="st2" points="416.4,147.9 399.8,157.5 416.4,167.1 432.9,157.5 "/>
<polygon class="st0" points="399.8,135.4 416.4,145 416.4,167.1 399.8,157.5 "/>
<polygon class="st3" points="432.9,135.4 416.4,145 416.4,167.1 432.9,157.5 "/>
<polygon class="st5" points="416.4,125.8 399.8,135.4 416.4,145 432.9,135.4 "/>
<polygon class="st3" points="432.9,135.4 416.4,145 416.4,167.1 432.9,157.5 "/>
<polygon class="st2" points="432.9,157.5 416.4,167.1 432.9,176.6 449.5,167.1 "/>
<polygon class="st0" points="416.4,144.9 432.9,154.5 432.9,176.6 416.4,167.1 "/>
<polygon class="st3" points="449.5,144.9 432.9,154.5 432.9,176.6 449.5,167.1 "/>
<polygon class="st5" points="432.9,135.4 416.4,145 432.9,154.5 449.5,144.9 "/>
<polygon class="st0" points="432.9,154.5 449.4,164.1 449.4,186.2 432.9,176.6 "/>
<polygon class="st3" points="466,155 449.4,164.6 449.4,186.7 466,177.1 "/>
<polygon class="st5" points="449.5,145 432.9,154.5 449.5,164.1 466.1,154.5 "/>
<polygon class="st3" points="466.1,154.5 449.5,164.1 449.5,186.2 466.1,176.6 "/>
<polygon class="st2" points="466.1,176.6 449.5,186.2 466.1,195.8 482.6,186.2 "/>
<polygon class="st0" points="449.5,164.1 466.1,173.7 466.1,195.8 449.5,186.2 "/>
<polygon class="st7" points="482.6,164.1 466.1,173.7 466.1,195.8 482.6,186.2 "/>
<polygon class="st2" points="466.1,154.5 449.5,164.1 466.1,173.7 482.6,164.1 "/>
<polygon class="st2" points="499.3,97.1 482.7,106.7 499.2,116.2 515.8,106.7 "/>
<polygon class="st3" points="515.8,84.6 499.2,94.1 499.2,116.2 515.8,106.7 "/>
<polygon class="st3" points="515.8,84.6 499.2,94.1 499.2,116.2 515.8,106.7 "/>
<polygon class="st2" points="515.8,84.6 499.2,94.1 515.8,103.7 532.4,94.1 "/>
<polygon class="st7" points="549,103.7 532.4,113.3 532.4,135.4 549,125.8 "/>
<polygon class="st2" points="532.4,94.1 515.8,103.7 532.4,113.3 549,103.7 "/>
<polygon class="st2" points="433,97.1 416.4,106.7 433,116.2 449.5,106.7 "/>
<polygon class="st4" points="416.4,84.6 433,94.1 433,116.2 416.4,106.7 "/>
<polygon class="st3" points="449.5,84.6 433,94.1 433,116.2 449.5,106.7 "/>
<polygon class="st3" points="416.4,84.6 399.8,94.2 399.8,116.3 416.4,106.7 "/>
<polygon class="st2" points="416.4,106.7 399.8,116.3 416.4,125.8 433,116.2 "/>
<polygon class="st5" points="399.8,94.1 416.4,103.7 416.4,125.8 399.8,116.2 "/>
<polygon class="st3" points="433,94.1 416.4,103.7 416.4,125.8 433,116.2 "/>
<polygon class="st2" points="416.4,84.6 399.8,94.2 416.4,103.7 433,94.1 "/>
<polygon class="st3" points="399.8,94.2 383.2,103.7 383.2,125.8 399.8,116.3 "/>
<polygon class="st5" points="399.8,116.3 383.2,125.8 399.8,135.4 416.4,125.8 "/>
<polygon class="st0" points="383.2,103.7 399.8,113.3 399.8,135.4 383.2,125.8 "/>
<polygon class="st2" points="399.8,94.2 383.2,103.7 399.8,113.3 416.4,103.7 "/>
<polygon class="st3" points="432.9,113.3 416.4,122.9 416.4,145 432.9,135.4 "/>
<polygon class="st0" points="416.4,122.8 432.9,132.4 432.9,154.5 416.4,144.9 "/>
<polygon class="st2" points="432.9,113.3 416.4,122.9 432.9,132.4 449.5,122.8 "/>
<polygon class="st3" points="466.1,132.4 449.5,142 449.5,164.1 466.1,154.5 "/>
<polygon class="st2" points="466.1,154.5 449.5,164.1 466.1,173.7 482.6,164.1 "/>
<polygon class="st0" points="449.5,142 466.1,151.5 466.1,173.7 449.5,164.1 "/>
<polygon class="st7" points="482.6,142 466.1,151.5 466.1,173.7 482.6,164.1 "/>
<polygon class="st2" points="466.1,132.4 449.5,142 466.1,151.5 482.6,142 "/>
<polygon class="st0" points="466.1,33.8 449.5,43.3 466.1,52.9 482.7,43.3 "/>
<polygon class="st0" points="482.7,43.3 466.1,52.9 482.7,62.5 499.3,52.9 "/>
<polygon class="st0" points="499.3,52.9 482.7,62.5 499.2,72 515.8,62.5 "/>
<polygon class="st2" points="515.8,84.6 499.2,94.1 515.8,103.7 532.4,94.1 "/>
<polygon class="st3" points="532.4,72 515.8,81.6 515.8,103.7 532.4,94.1 "/>
<polygon class="st0" points="515.8,62.5 499.2,72 515.8,81.6 532.4,72 "/>
<polygon class="st3" points="532.4,72 515.8,81.6 515.8,103.7 532.4,94.1 "/>
<polygon class="st2" points="532.4,94.1 515.8,103.7 532.4,113.3 549,103.7 "/>
<polygon class="st4" points="515.8,81.6 532.4,91.2 532.4,113.3 515.8,103.7 "/>
<polygon class="st7" points="549,81.6 532.4,91.2 532.4,113.3 549,103.7 "/>
<polygon class="st0" points="532.4,72 515.8,81.6 532.4,91.2 549,81.6 "/>
<polygon class="st0" points="449.5,43.3 433,52.9 449.5,62.5 466.1,52.9 "/>
<polygon class="st3" points="515.8,81.6 499.2,91.2 499.2,113.3 515.8,103.7 "/>
<polygon class="st2" points="515.8,103.7 499.2,113.3 515.8,122.8 532.4,113.3 "/>
<polygon class="st4" points="499.2,91.2 515.8,100.7 515.8,122.8 499.2,113.3 "/>
<polygon class="st7" points="532.4,91.2 515.8,100.7 515.8,122.8 532.4,113.3 "/>
<polygon class="st0" points="515.8,81.6 499.2,91.2 515.8,100.7 532.4,91.2 "/>
<polygon class="st0" points="433,52.9 416.4,62.5 433,72 449.5,62.5 "/>
<polygon class="st6" points="479.4,61.3 462.9,70.8 479.4,80.4 496,70.8 "/>
<polygon class="st6" points="482.7,60.6 466.1,70.1 482.7,79.7 499.3,70.1 "/>
<polygon class="st6" points="465.2,70.6 448.6,80.1 465.2,89.7 481.8,80.1 "/>
<polygon class="st2" points="482.5,103.6 465.9,113.2 482.5,122.8 499.1,113.2 "/>
<polygon class="st3" points="499.1,91.1 482.5,100.7 482.5,122.8 499.1,113.2 "/>
<polygon class="st3" points="499.2,91.2 482.7,100.7 482.7,122.8 499.2,113.3 "/>
<polygon class="st2" points="499.2,113.3 482.7,122.8 499.2,132.4 515.8,122.8 "/>
<polygon class="st4" points="482.6,100.7 499.2,110.3 499.2,132.4 482.6,122.8 "/>
<polygon class="st7" points="515.8,100.7 499.2,110.3 499.2,132.4 515.8,122.8 "/>
<polygon class="st0" points="499.2,91.2 482.7,100.7 499.2,110.3 515.8,100.7 "/>
<polygon class="st3" points="416.4,62.5 399.8,72 399.8,94.2 416.4,84.6 "/>
<polygon class="st2" points="416.4,84.6 399.8,94.2 416.4,103.7 433,94.1 "/>
<polygon class="st4" points="399.8,72 416.4,81.6 416.4,103.7 399.8,94.1 "/>
<polygon class="st0" points="416.4,62.5 399.8,72 416.4,81.6 433,72 "/>
<polygon class="st3" points="399.8,72 383.2,81.6 383.2,103.7 399.8,94.2 "/>
<polygon class="st2" points="399.8,94.2 383.2,103.7 399.8,113.3 416.4,103.7 "/>
<polygon class="st0" points="383.2,81.6 399.8,91.2 399.8,113.3 383.2,103.7 "/>
<polygon class="st3" points="416.4,81.6 399.8,91.2 399.8,113.3 416.4,103.7 "/>
<polygon class="st0" points="399.8,72 383.2,81.6 399.8,91.2 416.4,81.6 "/>
<polygon class="st3" points="416.4,81.6 399.8,91.2 399.8,113.3 416.4,103.7 "/>
<polygon class="st2" points="416.4,103.7 399.8,113.3 416.4,122.9 432.9,113.3 "/>
<polygon class="st0" points="399.8,91.2 416.4,100.7 416.4,122.9 399.8,113.3 "/>
<polygon class="st3" points="432.9,91.2 416.4,100.7 416.4,122.9 432.9,113.3 "/>
<polygon class="st0" points="416.4,81.6 399.8,91.2 416.4,100.7 432.9,91.2 "/>
<polygon class="st3" points="432.9,91.2 416.4,100.7 416.4,122.9 432.9,113.3 "/>
<polygon class="st2" points="432.9,113.3 416.4,122.9 432.9,132.4 449.5,122.8 "/>
<polygon class="st0" points="416.4,100.7 432.9,110.3 432.9,132.4 416.4,122.8 "/>
<polygon class="st3" points="449.5,100.7 432.9,110.3 432.9,132.4 449.5,122.8 "/>
<polygon class="st0" points="432.9,91.2 416.4,100.7 432.9,110.3 449.5,100.7 "/>
<polygon class="st3" points="482.7,100.7 466.1,110.3 466.1,132.4 482.7,122.8 "/>
<polygon class="st2" points="482.7,122.8 466.1,132.4 482.6,142 499.2,132.4 "/>
<polygon class="st4" points="466.1,110.3 482.6,119.9 482.6,142 466.1,132.4 "/>
<polygon class="st7" points="499.2,110.3 482.6,119.9 482.6,142 499.2,132.4 "/>
<polygon class="st0" points="482.7,100.7 466.1,110.3 482.6,119.9 499.2,110.3 "/>
<polygon class="st3" points="449.5,100.7 432.9,110.3 432.9,132.4 449.5,122.8 "/>
<polygon class="st2" points="449.5,122.8 432.9,132.4 449.5,142 466.1,132.4 "/>
<polygon class="st0" points="432.9,110.3 449.5,119.9 449.5,142 432.9,132.4 "/>
<polygon class="st3" points="466.1,110.3 449.5,119.9 449.5,142 466.1,132.4 "/>
<polygon class="st0" points="449.5,100.7 432.9,110.3 449.5,119.9 466.1,110.3 "/>
<polygon class="st3" points="466.1,110.3 449.5,119.9 449.5,142 466.1,132.4 "/>
<polygon class="st2" points="466.1,132.4 449.5,142 466.1,151.5 482.6,142 "/>
<polygon class="st0" points="449.5,119.9 466.1,129.4 466.1,151.5 449.5,142 "/>
<polygon class="st7" points="482.6,119.9 466.1,129.4 466.1,151.5 482.6,142 "/>
<polygon class="st0" points="466.1,110.3 449.5,119.9 466.1,129.4 482.6,119.9 "/>
<polygon class="st6" points="447,80.1 430.4,89.7 447,99.2 463.6,89.7 "/>
<polygon class="st0" points="500.5,67.4 479.3,79.6 500.5,91.9 521.8,79.6 "/>
<polygon class="st0" points="482.1,79.7 460.8,92 482.1,104.2 503.3,92 "/>
<polygon class="st0" points="460.2,90.4 438.9,102.7 460.2,114.9 481.4,102.7 "/>
<polygon class="st0" points="487.3,54.1 466,66.4 487.3,78.7 508.5,66.4 "/>
<polygon class="st0" points="466.5,66.1 445.2,78.4 466.5,90.7 487.7,78.4 "/>
<polygon class="st0" points="446.7,77.4 425.4,89.7 446.7,101.9 467.9,89.7 "/>
<polygon class="st0" points="452.4,56.5 433.9,64 455.1,76.2 473.6,68.8 "/>
</svg>
